<svg width="111" height="22" viewBox="0 0 111 22" fill="none" xmlns="http://www.w3.org/2000/svg">
<g clip-path="url(#clip0_454_473)">
<path d="M91.6262 22H89.957L99.2035 0.0375977H101.236L110.499 22H105.596L98.7419 5.0826L91.6262 22Z" fill="#0D0D38"/>
<path d="M84.552 22H80.127V0.0375977H84.552V22Z" fill="#0D0D38"/>
<path d="M69.8056 14.4963L63.5567 11.495C65.5406 11.495 65.6168 11.5148 67.4254 11.5148C70.362 11.5148 72.7281 10.3304 73.8224 8.7446C75.6451 6.10292 74.3341 2.47337 71.5086 1.0527C69.8884 0.238346 67.985 0 66.1786 0H58.6035V1.41753C58.6035 1.41753 63.2094 1.42276 65.1856 1.42276C67.6203 1.42276 69.5236 2.23084 70.2488 4.49304C70.5253 5.35548 70.5569 6.27018 70.3598 7.15248C69.5617 10.7266 66.4933 10.7705 66.1416 10.7643L63.2094 10.713V11.495L68.9781 21.9843H73.7832L69.8045 14.4963H69.8056Z" fill="#0D0D38"/>
<path d="M37.2402 0V1.41753H44.9253L44.9275 21.9843H49.3417V4.44077L45.2738 1.41753H55.2139V0H37.2402Z" fill="#0D0D38"/>
<path d="M20.5442 22H18.875L28.1215 0.0375977H30.1544L39.4172 22H34.5142L27.6598 5.0826L20.5442 22Z" fill="#0D0D38"/>
<path d="M18.5346 4.72612C18.1546 3.56262 17.449 2.63432 16.5497 1.92033C14.9654 0.662734 12.7801 0.0741859 10.7199 0.0396884C10.6241 0.0375977 10.5283 0.0375977 10.4325 0.0375977H0.5V22H4.94033V3.78005L0.848432 1.23142C0.848432 1.23142 9.65396 1.21679 9.65614 1.21679C10.8473 1.21679 12.0832 1.46872 13.0142 2.22139C13.9037 2.94061 14.3774 4.03095 14.5865 5.10664C15.0536 7.51101 13.7361 10.5572 10.9214 10.7642C9.92727 10.8374 6.48976 10.7642 6.48976 10.7642L7.2868 11.6214C7.2868 11.6214 10.1385 11.6486 10.8735 11.6214C13.515 11.5242 15.5675 11.0266 17.0385 9.83907C18.5738 8.59925 19.1335 6.5639 18.5346 4.72612Z" fill="#0D0D38"/>
</g>
<defs>
<clipPath id="clip0_454_473">
<rect width="110" height="22" fill="white" transform="translate(0.5)"/>
</clipPath>
</defs>
</svg>
