<svg width="25" height="24" viewBox="0 0 25 24" fill="none" xmlns="http://www.w3.org/2000/svg">
<mask id="mask0_167_4695" style="mask-type:alpha" maskUnits="userSpaceOnUse" x="0" y="0" width="25" height="24">
<rect x="0.75" width="24" height="24" fill="#D9D9D9"/>
</mask>
<g mask="url(#mask0_167_4695)">
<path d="M12.75 12C11.65 12 10.7083 11.6083 9.925 10.825C9.14167 10.0417 8.75 9.1 8.75 8C8.75 6.9 9.14167 5.95833 9.925 5.175C10.7083 4.39167 11.65 4 12.75 4C13.85 4 14.7917 4.39167 15.575 5.175C16.3583 5.95833 16.75 6.9 16.75 8C16.75 9.1 16.3583 10.0417 15.575 10.825C14.7917 11.6083 13.85 12 12.75 12ZM4.75 20V17.2C4.75 16.6333 4.89583 16.1125 5.1875 15.6375C5.47917 15.1625 5.86667 14.8 6.35 14.55C7.38333 14.0333 8.43333 13.6458 9.5 13.3875C10.5667 13.1292 11.65 13 12.75 13C13.85 13 14.9333 13.1292 16 13.3875C17.0667 13.6458 18.1167 14.0333 19.15 14.55C19.6333 14.8 20.0208 15.1625 20.3125 15.6375C20.6042 16.1125 20.75 16.6333 20.75 17.2V20H4.75ZM6.75 18H18.75V17.2C18.75 17.0167 18.7042 16.85 18.6125 16.7C18.5208 16.55 18.4 16.4333 18.25 16.35C17.35 15.9 16.4417 15.5625 15.525 15.3375C14.6083 15.1125 13.6833 15 12.75 15C11.8167 15 10.8917 15.1125 9.975 15.3375C9.05833 15.5625 8.15 15.9 7.25 16.35C7.1 16.4333 6.97917 16.55 6.8875 16.7C6.79583 16.85 6.75 17.0167 6.75 17.2V18ZM12.75 10C13.3 10 13.7708 9.80417 14.1625 9.4125C14.5542 9.02083 14.75 8.55 14.75 8C14.75 7.45 14.5542 6.97917 14.1625 6.5875C13.7708 6.19583 13.3 6 12.75 6C12.2 6 11.7292 6.19583 11.3375 6.5875C10.9458 6.97917 10.75 7.45 10.75 8C10.75 8.55 10.9458 9.02083 11.3375 9.4125C11.7292 9.80417 12.2 10 12.75 10Z" fill="#1C1B1F"/>
</g>
</svg>
