<svg width="32" height="34" viewBox="0 0 32 34" fill="none" xmlns="http://www.w3.org/2000/svg">
<path fill-rule="evenodd" clip-rule="evenodd" d="M6.10529 1.66459C3.43539 1.66459 1.26318 3.6675 1.26318 6.1293V27.8705C1.26318 30.3323 3.43539 32.3352 6.10529 32.3352H25.8948C28.5647 32.3352 30.7369 30.3323 30.7369 27.8705V13.9169C30.7369 12.1046 29.9714 10.4007 28.5815 9.1191L22.6922 3.68847C21.2767 2.38361 19.3946 1.66459 17.3929 1.66459H6.10529ZM25.8947 33.5H6.10526C2.73895 33.5 0 30.9745 0 27.8706V6.12941C0 3.02547 2.73895 0.5 6.10526 0.5H17.3928C19.7318 0.5 21.9309 1.34014 23.5853 2.86513L29.4745 8.29576C31.1032 9.79707 32 11.7934 32 13.917V27.8706C32 30.9745 29.2611 33.5 25.8947 33.5Z" fill="#2C2C2C"/>
<path fill-rule="evenodd" clip-rule="evenodd" d="M15.4243 7.67365C15.3803 7.67365 15.3624 7.6803 15.362 7.6803C15.1949 7.83675 15.145 8.75 16.0146 11.1229C16.2785 9.69103 16.3047 8.51416 15.9381 7.95173C15.8263 7.78082 15.6912 7.69868 15.4859 7.67717C15.4613 7.67443 15.441 7.67365 15.4243 7.67365ZM16.2888 14.9344C15.985 15.8512 15.6894 16.6229 15.5011 17.095C15.4858 17.1341 14.8278 18.7686 13.8418 20.6815C14.7999 20.4766 15.7189 20.315 16.5 20.1922C16.7278 20.1566 17.0279 20.1015 17.3783 20.0369C17.949 19.9325 18.5205 19.8312 19.0813 19.7424C18.2279 18.6094 17.5425 17.4826 17.2099 16.8231C16.8695 16.1473 16.5636 15.5192 16.2888 14.9344ZM21.4355 20.6412C22.3745 21.6022 23.2321 22.2037 23.6893 22.1673C23.92 22.149 24.0634 21.8275 24.1432 21.5611C24.265 21.1551 24.1407 21.028 24.0941 20.9803C23.7184 20.597 22.6406 20.5512 21.4355 20.6412ZM11.393 22.5306C9.45808 23.1341 8.18864 23.8126 7.88105 24.4619C7.80456 24.6234 7.74803 24.8554 7.99161 25.2156C8.25182 25.6 8.4397 25.5824 8.52076 25.5742C9.0686 25.5203 10.1518 24.4592 11.393 22.5306ZM8.47393 26.75C8.01795 26.75 7.43061 26.5724 6.93888 25.8453C6.41473 25.0697 6.54234 24.4052 6.74186 23.9844C7.37201 22.655 9.77746 21.7018 12.2769 21.051C12.9619 19.8218 13.6664 18.3586 14.3344 16.6831C14.7775 15.5719 15.1919 14.3712 15.5178 13.2178C13.3983 8.25569 14.0921 7.34009 14.3498 7.00021C14.5131 6.7847 14.8968 6.43348 15.6255 6.51092C16.2136 6.57311 16.6896 6.85901 17.0021 7.33852C17.7832 8.5369 17.4199 10.9528 16.8317 13.1392C17.2316 14.054 17.7266 15.1084 18.3377 16.3201C18.9179 17.4719 19.6824 18.5987 20.4621 19.5511C22.4848 19.3184 24.211 19.3696 25.0095 20.1851C25.303 20.4851 25.5989 21.0221 25.3421 21.8794C25.0033 23.0089 24.3125 23.2949 23.7925 23.3363C22.5999 23.429 21.1729 22.2385 19.9367 20.8054C19.0169 20.9317 18.1602 21.089 17.6177 21.1887C17.254 21.2556 16.9427 21.3127 16.7066 21.3494C15.3914 21.556 14.1777 21.7969 13.0961 22.0613C11.793 24.3489 10.1474 26.5943 8.64976 26.741C8.59365 26.7468 8.53504 26.75 8.47393 26.75Z" fill="#2C2C2C"/>
</svg>
