<svg width="32" height="33" viewBox="0 0 32 33" fill="none" xmlns="http://www.w3.org/2000/svg">
<path fill-rule="evenodd" clip-rule="evenodd" d="M6.10529 1.16459C3.43539 1.16459 1.26318 3.1675 1.26318 5.6293V27.3705C1.26318 29.8323 3.43539 31.8352 6.10529 31.8352H25.8948C28.5647 31.8352 30.7369 29.8323 30.7369 27.3705V13.4169C30.7369 11.6046 29.9714 9.90067 28.5815 8.6191L22.6922 3.18847C21.2767 1.88361 19.3946 1.16459 17.3929 1.16459H6.10529ZM25.8947 33H6.10526C2.73895 33 0 30.4745 0 27.3706V5.62941C0 2.52547 2.73895 0 6.10526 0H17.3928C19.7318 0 21.9309 0.840141 23.5853 2.36513L29.4745 7.79576C31.1032 9.29707 32 11.2934 32 13.417V27.3706C32 30.4745 29.2611 33 25.8947 33V33Z" fill="#2044DC"/>
<path fill-rule="evenodd" clip-rule="evenodd" d="M15.4243 7.17368C15.3803 7.17368 15.3624 7.18033 15.362 7.18033C15.1949 7.33678 15.145 8.25003 16.0146 10.6229C16.2785 9.19106 16.3047 8.01419 15.9381 7.45177C15.8263 7.28085 15.6912 7.19871 15.4859 7.1772C15.4613 7.17446 15.441 7.17368 15.4243 7.17368M16.2888 14.4345C15.985 15.3513 15.6894 16.1229 15.5011 16.595C15.4858 16.6341 14.8278 18.2686 13.8418 20.1815C14.7999 19.9766 15.7189 19.8151 16.5 19.6922C16.7278 19.6567 17.0279 19.6015 17.3783 19.537C17.949 19.4325 18.5205 19.3312 19.0813 19.2425C18.2279 18.1094 17.5425 16.9826 17.2099 16.3232C16.8695 15.6473 16.5636 15.0192 16.2888 14.4345M21.4355 20.1412C22.3745 21.1022 23.2321 21.7037 23.6893 21.6674C23.92 21.649 24.0634 21.3275 24.1432 21.0611C24.265 20.6552 24.1407 20.528 24.0941 20.4803C23.7184 20.097 22.6406 20.0513 21.4355 20.1412M11.393 22.0306C9.45808 22.6341 8.18864 23.3127 7.88105 23.9619C7.80456 24.1235 7.74803 24.3554 7.99161 24.7156C8.25182 25.1001 8.4397 25.0825 8.52076 25.0743C9.0686 25.0203 10.1518 23.9592 11.393 22.0306M8.47393 26.25C8.01795 26.25 7.43061 26.0724 6.93888 25.3454C6.41473 24.5698 6.54234 23.9053 6.74186 23.4844C7.37201 22.155 9.77746 21.2019 12.2769 20.5511C12.9619 19.3218 13.6664 17.8586 14.3344 16.1831C14.7775 15.0719 15.1919 13.8712 15.5178 12.7178C13.3983 7.75572 14.0921 6.84012 14.3498 6.50024C14.5131 6.28473 14.8968 5.93351 15.6255 6.01095C16.2136 6.07314 16.6896 6.35904 17.0021 6.83855C17.7832 8.03693 17.4199 10.4528 16.8317 12.6392C17.2316 13.554 17.7266 14.6085 18.3377 15.8201C18.9179 16.972 19.6824 18.0988 20.4621 19.0511C22.4848 18.8184 24.211 18.8697 25.0095 19.6851C25.303 19.9851 25.5989 20.5221 25.3421 21.3794C25.0033 22.509 24.3125 22.7949 23.7925 22.8363C22.5999 22.929 21.1729 21.7385 19.9367 20.3054C19.0169 20.4318 18.1602 20.589 17.6177 20.6887C17.254 20.7556 16.9427 20.8127 16.7066 20.8495C15.3914 21.056 14.1777 21.2969 13.0961 21.5613C11.793 23.8489 10.1474 26.0943 8.64976 26.241C8.59365 26.2469 8.53504 26.25 8.47393 26.25" fill="#2044DC"/>
</svg>
