<svg width="26" height="31" viewBox="0 0 26 31" fill="none" xmlns="http://www.w3.org/2000/svg">
<path fill-rule="evenodd" clip-rule="evenodd" d="M4.9596 1.79984C2.79031 1.79984 1.02539 3.60625 1.02539 5.82652V25.4347C1.02539 27.655 2.79031 29.4614 4.9596 29.4614H21.0385C23.2078 29.4614 24.9728 27.655 24.9728 25.4347V12.8501C24.9728 11.2156 24.3508 9.67883 23.2215 8.523L18.4365 3.62515C17.2863 2.44831 15.7571 1.79984 14.1308 1.79984H4.9596ZM21.0395 30.5119H4.96053C2.22539 30.5119 0 28.2342 0 25.4348V5.82663C0 3.02721 2.22539 0.749512 4.96053 0.749512H14.1317C16.0321 0.749512 17.8189 1.50723 19.163 2.8826L23.9481 7.78045C25.2713 9.13446 26 10.9349 26 12.8502V25.4348C26 28.2342 23.7746 30.5119 21.0395 30.5119Z" fill="#001EAF"/>
<path fill-rule="evenodd" clip-rule="evenodd" d="M12.529 7.21933C12.4932 7.21933 12.4787 7.22533 12.4783 7.22533C12.3425 7.36643 12.302 8.19008 13.0085 10.3302C13.223 9.03879 13.2443 7.97738 12.9464 7.47013C12.8556 7.31598 12.7458 7.24191 12.579 7.22251C12.559 7.22004 12.5425 7.21933 12.529 7.21933ZM13.2323 13.7678C12.9855 14.5946 12.7453 15.2906 12.5924 15.7163C12.5799 15.7516 12.0452 17.2257 11.2441 18.951C12.0226 18.7661 12.7693 18.6205 13.4039 18.5097C13.589 18.4776 13.8328 18.4279 14.1175 18.3697C14.5812 18.2755 15.0456 18.1841 15.5012 18.104C14.8078 17.0821 14.2509 16.0659 13.9808 15.4712C13.7042 14.8616 13.4556 14.2951 13.2323 13.7678ZM17.4141 18.9146C18.177 19.7813 18.8737 20.3238 19.2452 20.291C19.4327 20.2745 19.5492 19.9845 19.614 19.7443C19.713 19.3781 19.612 19.2635 19.5742 19.2205C19.2689 18.8748 18.3931 18.8335 17.4141 18.9146ZM9.25444 20.6187C7.68231 21.1629 6.65089 21.775 6.40097 22.3605C6.33883 22.5062 6.2929 22.7154 6.49081 23.0402C6.70222 23.387 6.85488 23.3711 6.92073 23.3637C7.36586 23.315 8.24598 22.358 9.25444 20.6187ZM6.88226 24.4241C6.51178 24.4241 6.03457 24.2639 5.63503 23.6082C5.20916 22.9087 5.31284 22.3094 5.47495 21.9298C5.98695 20.7308 7.94138 19.8712 9.97214 19.2842C10.5287 18.1756 11.1012 16.856 11.6439 15.3448C12.0039 14.3427 12.3406 13.2597 12.6054 12.2195C10.8833 7.74423 11.447 6.91846 11.6564 6.61193C11.7891 6.41756 12.1008 6.1008 12.6929 6.17064C13.1708 6.22673 13.5575 6.48458 13.8114 6.91705C14.446 7.99786 14.1509 10.1768 13.673 12.1486C13.9979 12.9737 14.4001 13.9247 14.8966 15.0175C15.368 16.0563 15.9891 17.0725 16.6227 17.9315C18.2661 17.7216 19.6687 17.7678 20.3174 18.5033C20.5559 18.7738 20.7963 19.2581 20.5876 20.0314C20.3124 21.0501 19.7511 21.3079 19.3286 21.3453C18.3596 21.4289 17.2002 20.3552 16.1958 19.0627C15.4484 19.1767 14.7523 19.3185 14.3116 19.4084C14.0161 19.4687 13.7631 19.5202 13.5713 19.5534C12.5027 19.7396 11.5166 19.9569 10.6378 20.1954C9.57902 22.2586 8.24196 24.2837 7.02512 24.416C6.97953 24.4212 6.93191 24.4241 6.88226 24.4241Z" fill="#001EAF"/>
</svg>
