<svg width="26" height="31" viewBox="0 0 26 31" fill="none" xmlns="http://www.w3.org/2000/svg">
<path d="M9.04127 8.21863H4.51953V12.7673H9.04127V8.21863Z" stroke="#001EAF" stroke-width="1.3" stroke-miterlimit="10" stroke-linecap="round" stroke-linejoin="round"/>
<path d="M11.3008 10.4929H20.3443" stroke="#001EAF" stroke-width="1.3" stroke-miterlimit="10" stroke-linecap="round" stroke-linejoin="round"/>
<path d="M11.3008 8.21863H20.3443" stroke="#001EAF" stroke-width="1.3" stroke-miterlimit="10" stroke-linecap="round" stroke-linejoin="round"/>
<path d="M11.3008 12.7673H20.3443" stroke="#001EAF" stroke-width="1.3" stroke-miterlimit="10" stroke-linecap="round" stroke-linejoin="round"/>
<path d="M4.51953 15.0416H20.3456" stroke="#001EAF" stroke-width="1.3" stroke-miterlimit="10" stroke-linecap="round" stroke-linejoin="round"/>
<path d="M4.51953 17.316H20.3456" stroke="#001EAF" stroke-width="1.3" stroke-miterlimit="10" stroke-linecap="round" stroke-linejoin="round"/>
<path d="M4.51953 19.5903H20.3456" stroke="#001EAF" stroke-width="1.3" stroke-miterlimit="10" stroke-linecap="round" stroke-linejoin="round"/>
<path d="M4.51953 21.8646H20.3456" stroke="#001EAF" stroke-width="1.3" stroke-miterlimit="10" stroke-linecap="round" stroke-linejoin="round"/>
<path d="M4.51953 24.139H20.3456" stroke="#001EAF" stroke-width="1.3" stroke-miterlimit="10" stroke-linecap="round" stroke-linejoin="round"/>
<path fill-rule="evenodd" clip-rule="evenodd" d="M4.9596 1.30885C2.79031 1.30885 1.02539 3.11525 1.02539 5.33553V24.9437C1.02539 27.164 2.79031 28.9704 4.9596 28.9704H21.0385C23.2078 28.9704 24.9728 27.164 24.9728 24.9437V12.3591C24.9728 10.7246 24.3508 9.18783 23.2215 8.032L18.4365 3.13416C17.2863 1.95732 15.7571 1.30885 14.1308 1.30885H4.9596ZM21.0395 30.021H4.96053C2.22539 30.021 0 27.7433 0 24.9438V5.33566C0 2.53625 2.22539 0.258545 4.96053 0.258545H14.1317C16.0321 0.258545 17.8189 1.01626 19.163 2.39163L23.9481 7.28948C25.2713 8.64349 26 10.4439 26 12.3592V24.9438C26 27.7433 23.7746 30.021 21.0395 30.021Z" fill="#001EAF"/>
</svg>
