<svg width="33" height="32" viewBox="0 0 33 32" fill="none" xmlns="http://www.w3.org/2000/svg">
<mask id="mask0_454_520" style="mask-type:alpha" maskUnits="userSpaceOnUse" x="0" y="0" width="33" height="32">
<rect x="0.5" width="32" height="32" fill="#D9D9D9"/>
</mask>
<g mask="url(#mask0_454_520)">
<path d="M26.4785 26.8716L18.1298 18.523C17.4632 19.0905 16.6965 19.5299 15.8298 19.841C14.9632 20.1521 14.0923 20.3076 13.2172 20.3076C11.0816 20.3076 9.27417 19.5684 7.79484 18.09C6.31573 16.6115 5.57617 14.8052 5.57617 12.671C5.57617 10.5365 6.31539 8.72863 7.79384 7.2473C9.27228 5.76619 11.0786 5.02563 13.2128 5.02563C15.3473 5.02563 17.1552 5.76519 18.6365 7.2443C20.1176 8.72363 20.8582 10.5311 20.8582 12.6666C20.8582 13.5931 20.6941 14.4896 20.3658 15.3563C20.0376 16.223 19.6068 16.964 19.0735 17.5793L27.4222 25.9283L26.4785 26.8716ZM13.2172 18.9743C14.9863 18.9743 16.4798 18.3653 17.6978 17.1473C18.9158 15.9295 19.5248 14.436 19.5248 12.6666C19.5248 10.8973 18.9158 9.40375 17.6978 8.18597C16.4798 6.96797 14.9863 6.35897 13.2172 6.35897C11.4478 6.35897 9.95428 6.96797 8.73651 8.18597C7.51851 9.40375 6.90951 10.8973 6.90951 12.6666C6.90951 14.436 7.51851 15.9295 8.73651 17.1473C9.95428 18.3653 11.4478 18.9743 13.2172 18.9743Z" fill="#001EAF"/>
</g>
</svg>
