<svg width="22" height="22" viewBox="0 0 22 22" fill="none" xmlns="http://www.w3.org/2000/svg">
<path d="M20.1222 8.74612C18.5798 10.3899 16.8356 11.8707 15.3013 13.5273C13.545 15.0789 10.562 15.0712 8.85551 13.4514C8.40725 13.0255 8.16376 12.3592 8.81374 11.9802C9.44131 11.614 9.75102 12.1142 10.1911 12.4219C11.4977 13.3347 13.0982 13.2614 14.309 12.2288C15.7598 10.5713 17.7214 9.08232 19.1228 7.41509C20.7472 5.48195 19.7554 2.43275 17.2049 2.04612C14.6401 1.65695 13.4365 4.17078 11.7315 5.5767C10.9017 6.08405 10.0393 5.16715 10.6389 4.38218C12.2231 3.00734 13.4568 0.901013 15.6559 0.484842C20.5317 -0.438172 23.4536 5.19619 20.1222 8.74612Z" fill="#2044DC"/>
<path d="M9.22859 7.25056C10.5107 7.12728 12.6364 7.61375 13.3776 8.77669C13.781 9.40986 13.2681 10.1434 12.5371 10.0247C12.2243 9.97375 11.8713 9.53619 11.5779 9.35383C10.3126 8.56631 8.75435 8.7232 7.63318 9.67933C5.88903 11.1673 4.2707 13.1905 2.59634 14.7793C0.888863 17.4429 3.23766 20.6837 6.32354 19.7291C7.77581 19.2798 8.96167 17.2967 10.1552 16.3783C10.9524 15.7645 11.9289 16.7074 11.3038 17.527C9.71964 18.9013 8.48539 21.0082 6.28687 21.4243C1.61423 22.3091 -1.32953 17.1511 1.52152 13.5008C3.28299 11.9385 4.86618 9.8948 6.64089 8.3814C7.33213 7.79204 8.31831 7.33817 9.22859 7.25056Z" fill="#2044DC"/>
</svg>
