<svg width="25" height="26" viewBox="0 0 25 26" fill="none" xmlns="http://www.w3.org/2000/svg">
<path d="M17.4129 0.00830078C17.9344 0.406295 18.418 0.92212 18.8828 1.39749C19.381 1.90724 19.8528 2.45544 20.3485 2.96772C21.5358 4.1971 22.9828 5.50133 24.0719 6.78381C24.1509 6.87686 24.3671 7.12669 24.3894 7.2253L24.3995 24.1555C24.2699 25.0784 23.5757 25.7212 22.6785 25.9007H7.23615C6.42808 25.8269 5.46407 24.9343 5.46407 24.1054V19.4276H1.2364C0.75288 19.4276 0.026328 18.6796 0 18.1846L0.0435425 10.0441C0.190372 9.50403 0.8187 8.95938 1.38779 8.95938H5.46357V1.80357C5.46357 0.960554 6.43011 0.098823 7.23565 0.00830078H17.4124H17.4129ZM16.451 1.01972H7.21084C7.01489 1.01972 6.47669 1.55729 6.47669 1.753V8.95938H15.0586C15.7963 8.95938 16.4899 9.83274 16.453 10.5503C16.297 12.9348 16.6575 15.5751 16.4444 17.9292C16.3942 18.4814 16.1548 18.9932 15.6434 19.2531C15.5705 19.29 15.21 19.4276 15.1599 19.4276H6.47669V24.156C6.47669 24.381 7.03869 24.9252 7.3121 24.8893L22.5034 24.8913C22.8709 24.8766 23.2233 24.6096 23.3489 24.2693C23.3661 24.2233 23.438 23.9284 23.438 23.9031V7.99853H16.9319C16.7993 7.99853 16.451 7.74466 16.451 7.61925V1.01972ZM22.8304 6.98711L17.4129 1.37372V6.98711H22.8304ZM1.3483 9.98142C1.04704 10.0805 0.980212 10.3698 0.955909 10.6515C1.10628 12.959 0.761993 15.5068 0.955909 17.7856C0.978693 18.0516 1.0278 18.2402 1.27438 18.3777H15.172C15.3305 18.31 15.4424 18.0576 15.4404 17.8877L15.3988 10.2879C15.3285 10.076 15.1265 9.97384 14.9087 9.96828L1.34779 9.98142H1.3483Z" fill="#2044DC"/>
<path d="M13.666 13.4095H12.8053C12.8747 12.5665 11.0206 12.6459 11.3745 13.3979C11.5846 13.8445 13.4139 13.6847 13.7435 14.7229C14.026 15.6134 13.4762 16.3781 12.5734 16.4903C11.4727 16.6274 10.4753 16.2967 10.3467 15.0774L11.178 14.9848C11.297 15.6716 11.8661 15.925 12.5122 15.7217C12.9724 15.5765 13.1481 15.0486 12.6565 14.7977C12.0084 14.467 10.8332 14.5616 10.5517 13.6634C9.94265 11.722 13.785 11.4823 13.666 13.4095Z" fill="#2044DC"/>
<path d="M3.64156 12.1454L4.47697 13.5098L5.31237 12.1454H6.32499L5.0091 14.2441L6.42625 16.4439H5.43895L4.50127 14.9774L3.5403 16.4439H2.47705L3.92914 14.194L2.62894 12.1454H3.64156Z" fill="#2044DC"/>
<path d="M7.79334 12.1959V15.7359H9.91983V16.4439H6.93262V12.1959H7.79334Z" fill="#2044DC"/>
</svg>
