<svg width="24" height="26" viewBox="0 0 24 26" fill="none" xmlns="http://www.w3.org/2000/svg">
<path fill-rule="evenodd" clip-rule="evenodd" d="M4.86566 0.91431C2.97724 0.91431 1.44083 2.48683 1.44083 4.41963V21.489C1.44083 23.4219 2.97724 24.9944 4.86566 24.9944H18.8628C20.7512 24.9944 22.2876 23.4219 22.2876 21.489V10.5338C22.2876 9.11098 21.7462 7.77316 20.7631 6.76698L16.5976 2.50329C15.5964 1.47882 14.2652 0.91431 12.8494 0.91431H4.86566ZM18.8637 25.9089H4.8666C2.4856 25.9089 0.54834 23.9261 0.54834 21.4892V4.41976C0.54834 1.98279 2.4856 0 4.8666 0H12.8503C14.5047 0 16.0601 0.659611 17.2302 1.85691L21.3957 6.1206C22.5476 7.29931 23.182 8.86664 23.182 10.534V21.4892C23.182 23.9261 21.2447 25.9089 18.8637 25.9089Z" fill="#2044DC"/>
<path fill-rule="evenodd" clip-rule="evenodd" d="M11.4548 5.63204C11.4236 5.63204 11.411 5.63726 11.4107 5.63726C11.2925 5.76009 11.2572 6.4771 11.8723 8.34011C12.059 7.21592 12.0775 6.29194 11.8182 5.85037C11.7391 5.71618 11.6436 5.65169 11.4983 5.6348C11.481 5.63265 11.4666 5.63204 11.4548 5.63204ZM12.0671 11.3326C11.8522 12.0524 11.6432 12.6582 11.51 13.0289C11.4991 13.0596 11.0337 14.3428 10.3364 15.8447C11.014 15.6838 11.6641 15.557 12.2165 15.4606C12.3776 15.4326 12.5899 15.3893 12.8377 15.3387C13.2414 15.2567 13.6456 15.1772 14.0422 15.1074C13.4387 14.2179 12.9538 13.3332 12.7186 12.8155C12.4779 12.2848 12.2615 11.7917 12.0671 11.3326ZM15.7074 15.8131C16.3715 16.5676 16.978 17.0398 17.3014 17.0113C17.4646 16.9969 17.566 16.7444 17.6225 16.5353C17.7086 16.2166 17.6207 16.1168 17.5878 16.0793C17.322 15.7784 16.5597 15.7425 15.7074 15.8131ZM8.60428 17.2964C7.23571 17.7702 6.33783 18.303 6.12027 18.8127C6.06618 18.9396 6.02619 19.1217 6.19848 19.4045C6.38252 19.7063 6.51541 19.6925 6.57274 19.6861C6.96023 19.6437 7.7264 18.8106 8.60428 17.2964ZM6.53922 20.6092C6.2167 20.6092 5.80128 20.4698 5.45348 19.899C5.08274 19.29 5.173 18.7683 5.31412 18.4379C5.75983 17.3942 7.46121 16.6458 9.22904 16.1349C9.71355 15.1698 10.2119 14.021 10.6843 12.7055C10.9977 11.8331 11.2909 10.8904 11.5214 9.98484C10.0222 6.08902 10.5129 5.37016 10.6952 5.10332C10.8108 4.93412 11.0821 4.65837 11.5975 4.71917C12.0135 4.76799 12.3501 4.99246 12.5712 5.36893C13.1237 6.3098 12.8667 8.20659 12.4507 9.92312C12.7335 10.6414 13.0837 11.4692 13.5159 12.4205C13.9263 13.3249 14.467 14.2095 15.0185 14.9573C16.4491 14.7746 17.6701 14.8148 18.2349 15.455C18.4424 15.6905 18.6518 16.1122 18.4701 16.7853C18.2305 17.6721 17.7418 17.8966 17.374 17.9291C16.5305 18.0019 15.5212 17.0672 14.6469 15.942C13.9963 16.0412 13.3903 16.1647 13.0067 16.243C12.7494 16.2955 12.5292 16.3403 12.3622 16.3692C11.432 16.5313 10.5735 16.7205 9.80851 16.928C8.88682 18.7241 7.72287 20.487 6.66358 20.6022C6.62389 20.6068 6.58244 20.6092 6.53922 20.6092Z" fill="#2044DC"/>
</svg>
